<svg height="512pt" viewBox="0 0 512 512" width="512pt" xmlns="http://www.w3.org/2000/svg"><path d="m467 0h-422c-24.8125 0-45 20.1875-45 45v422c0 24.8125 20.1875 45 45 45h422c24.8125 0 45-20.1875 45-45v-422c0-24.8125-20.1875-45-45-45zm-422 30h422c8.269531 0 15 6.730469 15 15v76h-452v-76c0-8.269531 6.730469-15 15-15zm422 452h-422c-8.269531 0-15-6.730469-15-15v-316h452v316c0 8.269531-6.730469 15-15 15zm0 0"/><path d="m91 75c0 8.285156-6.714844 15-15 15s-15-6.714844-15-15 6.714844-15 15-15 15 6.714844 15 15zm0 0"/><path d="m151 75c0 8.285156-6.714844 15-15 15s-15-6.714844-15-15 6.714844-15 15-15 15 6.714844 15 15zm0 0"/><path d="m211 75c0 8.285156-6.714844 15-15 15s-15-6.714844-15-15 6.714844-15 15-15 15 6.714844 15 15zm0 0"/><path d="m316 90h120c8.285156 0 15-6.714844 15-15s-6.714844-15-15-15h-120c-8.285156 0-15 6.714844-15 15s6.714844 15 15 15zm0 0"/><path d="m316 212h-162.292969l-2.910156-17.464844c-1.207031-7.234375-7.464844-12.535156-14.796875-12.535156h-60c-8.285156 0-15 6.714844-15 15s6.714844 15 15 15h47.292969l16.417969 98.511719c-11.320313 8.179687-18.710938 21.484375-18.710938 36.488281 0 24.8125 20.1875 45 45 45h120c8.285156 0 15-6.714844 15-15s-6.714844-15-15-15h-120c-8.269531 0-15-6.730469-15-15s6.730469-15 15-15h120c6.457031 0 12.1875-4.132812 14.230469-10.257812l30-90c3.230469-9.695313-3.996094-19.742188-14.230469-19.742188zm-40.8125 90h-106.480469l-10-60h136.480469zm0 0"/><path d="m436 212h-60c-8.285156 0-15 6.714844-15 15s6.714844 15 15 15h60c8.285156 0 15-6.714844 15-15s-6.714844-15-15-15zm0 0"/><path d="m436 272h-60c-8.285156 0-15 6.714844-15 15s6.714844 15 15 15h60c8.285156 0 15-6.714844 15-15s-6.714844-15-15-15zm0 0"/><path d="m436 332h-60c-8.285156 0-15 6.714844-15 15s6.714844 15 15 15h60c8.285156 0 15-6.714844 15-15s-6.714844-15-15-15zm0 0"/><path d="m436 392h-60c-8.285156 0-15 6.714844-15 15s6.714844 15 15 15h60c8.285156 0 15-6.714844 15-15s-6.714844-15-15-15zm0 0"/><path d="m151 422c0 16.542969 13.457031 30 30 30s30-13.457031 30-30-13.457031-30-30-30-30 13.457031-30 30zm0 0"/><path d="m241 422c0 16.542969 13.457031 30 30 30s30-13.457031 30-30-13.457031-30-30-30-30 13.457031-30 30zm0 0"/></svg>