<svg height="512pt" viewBox="0 0 512 512" width="512pt" xmlns="http://www.w3.org/2000/svg"><path d="M467 0H45C20.187 0 0 20.188 0 45v422c0 24.813 20.188 45 45 45h422c24.813 0 45-20.188 45-45V45c0-24.813-20.188-45-45-45zM45 30h422c8.27 0 15 6.73 15 15v76H30V45c0-8.27 6.73-15 15-15zm422 452H45c-8.27 0-15-6.73-15-15V151h452v316c0 8.27-6.73 15-15 15zm0 0"/><path d="M91 75c0 8.285-6.715 15-15 15s-15-6.715-15-15 6.715-15 15-15 15 6.715 15 15zm60 0c0 8.285-6.715 15-15 15s-15-6.715-15-15 6.715-15 15-15 15 6.715 15 15zm60 0c0 8.285-6.715 15-15 15s-15-6.715-15-15 6.715-15 15-15 15 6.715 15 15zm105 15h120c8.285 0 15-6.715 15-15s-6.715-15-15-15H316c-8.285 0-15 6.715-15 15s6.715 15 15 15zm0 122H153.707l-2.91-17.465A15.002 15.002 0 0 0 136 182H76c-8.285 0-15 6.715-15 15s6.715 15 15 15h47.293l16.418 98.512C128.39 318.692 121 331.996 121 347c0 24.813 20.188 45 45 45h120c8.285 0 15-6.715 15-15s-6.715-15-15-15H166c-8.27 0-15-6.73-15-15s6.73-15 15-15h120a15.002 15.002 0 0 0 14.23-10.258l30-90C333.46 222.047 326.234 212 316 212zm-40.813 90h-106.48l-10-60h136.48zM436 212h-60c-8.285 0-15 6.715-15 15s6.715 15 15 15h60c8.285 0 15-6.715 15-15s-6.715-15-15-15zm0 60h-60c-8.285 0-15 6.715-15 15s6.715 15 15 15h60c8.285 0 15-6.715 15-15s-6.715-15-15-15zm0 60h-60c-8.285 0-15 6.715-15 15s6.715 15 15 15h60c8.285 0 15-6.715 15-15s-6.715-15-15-15zm0 60h-60c-8.285 0-15 6.715-15 15s6.715 15 15 15h60c8.285 0 15-6.715 15-15s-6.715-15-15-15zm-285 30c0 16.543 13.457 30 30 30s30-13.457 30-30-13.457-30-30-30-30 13.457-30 30zm90 0c0 16.543 13.457 30 30 30s30-13.457 30-30-13.457-30-30-30-30 13.457-30 30zm0 0"/></svg>