<svg viewBox="0 0 64 64" xmlns="http://www.w3.org/2000/svg"><path d="M32 47a14 14 0 1 0-14-14 14.015 14.015 0 0 0 14 14zm0-26a12 12 0 1 1-12 12 12.013 12.013 0 0 1 12-12z"/><path d="M24.174 39.214l.012.009a9.971 9.971 0 0 0 15.632 0l.012-.01c.006-.007.007-.016.013-.024a10 10 0 1 0-15.683 0c.006.011.007.017.014.025zm2.241-.5a9.942 9.942 0 0 1 11.171 0 7.973 7.973 0 0 1-11.171 0zM25.688 28.1l.655.655 1.414-1.414-.655-.655A7.953 7.953 0 0 1 31 25.069V26h2v-.931a7.953 7.953 0 0 1 3.9 1.619l-.655.655 1.414 1.414.655-.655A7.953 7.953 0 0 1 39.931 32H39v2h.931a7.932 7.932 0 0 1-1.1 3.15 12.029 12.029 0 0 0-4.446-1.912c-.059-.012-.119-.014-.178-.026l3.505-3.505a1 1 0 0 0-1.414-1.414l-4.719 4.718a11.938 11.938 0 0 0-6.4 2.141A7.936 7.936 0 0 1 24.069 34H25v-2h-.931a7.953 7.953 0 0 1 1.619-3.9z"/><path d="M58 7H6a1 1 0 0 0-1 1v50a1 1 0 0 0 1 1h52a1 1 0 0 0 1-1V8a1 1 0 0 0-1-1zM7 9h50v6H7zm0 48V17h50v40z"/><path d="M13 11h2v2h-2zm40 0h2v2h-2zm-36 0h2v2h-2zm-8 0h2v2H9zm41 38H14a1 1 0 0 0-1 1v4a1 1 0 0 0 1 1h36a1 1 0 0 0 1-1v-4a1 1 0 0 0-1-1zm-5 2v2h-4v-2zm-30 2v-2h24v2zm34 0h-2v-2h2z"/></svg>