<svg viewBox="0 0 64 64" xmlns="http://www.w3.org/2000/svg"><path d="M61.1 4.215l-12.5-1.21a1 1 0 0 0-.976 1.47L47.9 5H16a1 1 0 0 0-1 1v3h-3a1 1 0 0 0-1 1v16H6a1 1 0 0 0-1 1v33a1 1 0 0 0 1 1h35a1 1 0 0 0 1-1v-3h3a1 1 0 0 0 1-1v-3h5a1 1 0 0 0 1-1V14.609l.839-.453 1.424 2.644a1 1 0 0 0 .88.525h.005a1 1 0 0 0 .88-.534l5.857-11.115a1 1 0 0 0-.785-1.461zM7 28h4v2H7zm33 31H7V32h4v24a1 1 0 0 0 1 1h28zm4-4H13V11h2v41a1 1 0 0 0 1 1h28zm6-4H17V7h31.979l.062.115-30.1 16.237a1 1 0 0 0-.405 1.354l2.848 5.28a1 1 0 0 0 .881.526.99.99 0 0 0 .474-.12L50 15.687zm5.133-36.8l-1.008-1.87a1 1 0 0 0-1.355-.4l-30.1 16.235-1.9-3.52L50.871 8.4a1 1 0 0 0 .405-1.354l-1.008-1.87 9.152.886z"/><path d="M19 34v15h28V27a1 1 0 0 0-1-1h-6a1 1 0 0 0-1 1v20h-2V31a1 1 0 0 0-1-1h-6a1 1 0 0 0-1 1v16h-2V34a1 1 0 0 0-1-1h-6a1 1 0 0 0-1 1zm22-6h4v19h-4zm-10 4h4v15h-4zm-10 3h4v12h-4z"/></svg>