<svg viewBox="0 0 64 64" xmlns="http://www.w3.org/2000/svg"><path d="M54 42.2V8a1 1 0 0 0-1-1h-5V6a3 3 0 0 0-6 0v1h-4V6a3 3 0 0 0-6 0v1h-8V6a3 3 0 0 0-6 0v1h-4V6a3 3 0 0 0-6 0v1H3a1 1 0 0 0-1 1v44a1 1 0 0 0 1 1h39.051A10 10 0 1 0 54 42.2zM44 6a1 1 0 0 1 2 0v4h-2zM34 6a1 1 0 0 1 2 0v4h-2zM20 6a1 1 0 0 1 2 0v4h-2zM10 8V6a1 1 0 0 1 2 0v4h-2zM4 9h4v2a1 1 0 0 0 1 1h4a1 1 0 0 0 1-1V9h4v2a1 1 0 0 0 1 1h4a1 1 0 0 0 1-1V9h8v2a1 1 0 0 0 1 1h4a1 1 0 0 0 1-1V9h4v2a1 1 0 0 0 1 1h4a1 1 0 0 0 1-1V9h4v4H4zm0 42V15h48v27a10.013 10.013 0 0 0-9.949 9zm48 9a8 8 0 1 1 8-8 8.009 8.009 0 0 1-8 8z"/><path d="M49.8 47.4l-1.6 1.2 3 4a1 1 0 0 0 .636.386l6 1 .328-1.972-5.6-.935zM40 20a3 3 0 0 0-3 3v.032l-3.518 2.111a1 1 0 0 0-.285.257l-5.414 7.218-6.205-4.431a1 1 0 0 0-1.378.213l-5.432 7.244L10 32.465V19H8v27a1 1 0 0 0 1 1h32v-2H10V34.868l4.445 2.964A1 1 0 0 0 15.8 37.6l5.414-7.218 6.205 4.431A1 1 0 0 0 28.8 34.6l5.883-7.843 3.041-1.825A2.994 2.994 0 1 0 40 20zm0 4a1 1 0 1 1 1-1 1 1 0 0 1-1 1z"/><path d="M26 37h4v2h-4zm-7-13h4v2h-4zm-6 16h4v2h-4z"/></svg>