<svg height="512pt" viewBox="0 -53 512 511" width="512pt" xmlns="http://www.w3.org/2000/svg"><path d="M53.332 64.5C23.914 64.5 0 88.438 0 117.832V352.5c0 29.398 23.914 53.332 53.332 53.332 5.89 0 10.668-4.777 10.668-10.664v-320c0-5.89-4.777-10.668-10.668-10.668zm0 0" fill="#3db39e"/><path d="M458.668.5H96C66.582.5 42.668 24.438 42.668 53.832v341.336c0 5.887 4.777 10.664 10.664 10.664h405.336c29.418 0 53.332-23.934 53.332-53.332V53.832C512 24.437 488.086.5 458.668.5zm0 0" fill="#3db39e"/><path d="M266.668 192.5H96c-5.887 0-10.668 4.777-10.668 10.668v128c0 5.887 4.781 10.664 10.668 10.664h170.668c5.887 0 10.664-4.777 10.664-10.664v-128c0-5.89-4.777-10.668-10.664-10.668zm0 0" fill="#2196f3"/><path d="M458.668 405.832H53.332c-5.887 0-10.664-4.777-10.664-10.664 0-5.89 4.777-10.668 10.664-10.668h405.336c17.64 0 32-14.355 32-32V53.832c0-17.64-14.36-32-32-32H96c-17.645 0-32 14.36-32 32V352.5c0 5.887-4.777 10.668-10.668 10.668-5.887 0-10.664-4.781-10.664-10.668V53.832C42.668 24.414 66.582.5 96 .5h362.668C488.086.5 512 24.414 512 53.832V352.5c0 29.418-23.914 53.332-53.332 53.332zm0 0"/><path d="M96 405.832H53.332C23.914 405.832 0 381.918 0 352.5V117.832C0 88.414 23.914 64.5 53.332 64.5 59.222 64.5 64 69.277 64 75.168c0 5.887-4.777 10.664-10.668 10.664-17.64 0-32 14.36-32 32V352.5c0 17.645 14.36 32 32 32H96c5.887 0 10.668 4.777 10.668 10.668 0 5.887-4.781 10.664-10.668 10.664zm0 0"/><path d="M266.668 341.832H96c-5.887 0-10.668-4.777-10.668-10.664v-128c0-5.89 4.781-10.668 10.668-10.668h170.668c5.887 0 10.664 4.777 10.664 10.668v128c0 5.887-4.777 10.664-10.664 10.664zm-160-21.332H256V213.832H106.668zm352-106.668H309.332c-5.887 0-10.664-4.777-10.664-10.664 0-5.89 4.777-10.668 10.664-10.668h149.336c5.887 0 10.664 4.777 10.664 10.668 0 5.887-4.777 10.664-10.664 10.664zm0 64H309.332c-5.887 0-10.664-4.777-10.664-10.664 0-5.89 4.777-10.668 10.664-10.668h149.336c5.887 0 10.664 4.777 10.664 10.668 0 5.887-4.777 10.664-10.664 10.664zm0 64H309.332c-5.887 0-10.664-4.777-10.664-10.664 0-5.89 4.777-10.668 10.664-10.668h149.336c5.887 0 10.664 4.777 10.664 10.668 0 5.887-4.777 10.664-10.664 10.664zm0-192H96c-5.887 0-10.668-4.777-10.668-10.664 0-5.89 4.781-10.668 10.668-10.668h362.668c5.887 0 10.664 4.777 10.664 10.668 0 5.887-4.777 10.664-10.664 10.664zm0-64H96c-5.887 0-10.668-4.777-10.668-10.664 0-5.89 4.781-10.668 10.668-10.668h362.668c5.887 0 10.664 4.777 10.664 10.668 0 5.887-4.777 10.664-10.664 10.664zm0 0"/></svg>