<svg height="512pt" viewBox="0 0 512 512" width="512pt" xmlns="http://www.w3.org/2000/svg"><path d="M316 211c0-33.086-26.914-60-60-60s-60 26.914-60 60 26.914 60 60 60 60-26.914 60-60zm-60 30c-16.543 0-30-13.457-30-30s13.457-30 30-30 30 13.457 30 30-13.457 30-30 30zm0 0"/><path d="M452 392a59.629 59.629 0 0 0-30.453 8.332l-38.805-38.805C406.613 332.902 421 296.102 421 256s-14.387-76.902-38.262-105.527l38.809-38.805A59.629 59.629 0 0 0 452 120c33.086 0 60-26.914 60-60S485.086 0 452 0s-60 26.914-60 60c0 11.11 3.047 21.52 8.332 30.453l-38.805 38.809C332.902 105.387 296.102 91 256 91s-76.902 14.387-105.527 38.262l-38.805-38.809A59.629 59.629 0 0 0 120 60c0-33.086-26.914-60-60-60S0 26.914 0 60s26.914 60 60 60c11.11 0 21.52-3.047 30.453-8.332l38.809 38.805C105.387 179.098 91 215.898 91 256s14.387 76.902 38.262 105.527l-38.809 38.805A59.629 59.629 0 0 0 60 392c-33.086 0-60 26.914-60 60s26.914 60 60 60 60-26.914 60-60c0-11.11-3.047-21.52-8.332-30.453l38.805-38.809C179.164 406.672 216 421 256 421c37.566 0 74.953-12.762 105.527-38.262l38.809 38.809A59.594 59.594 0 0 0 392 452c0 33.086 26.914 60 60 60s60-26.914 60-60-26.914-60-60-60zm0-362c16.543 0 30 13.457 30 30s-13.457 30-30 30-30-13.457-30-30 13.457-30 30-30zM30 60c0-16.543 13.457-30 30-30s30 13.457 30 30-13.457 30-30 30-30-13.457-30-30zm226 61c74.438 0 135 60.563 135 135 0 39.945-17.445 75.887-45.11 100.625C343.603 309.023 304.16 271 256 271s-87.602 38.023-89.89 85.625C138.444 331.887 121 295.945 121 256c0-74.438 60.563-135 135-135zM60 482c-16.543 0-30-13.457-30-30s13.457-30 30-30 30 13.457 30 30-13.457 30-30 30zm136-105.09V361c0-33.086 26.914-60 60-60s60 26.914 60 60v15.91c-18.086 9.012-38.46 14.09-60 14.09s-41.914-5.078-60-14.09zM452 482c-16.543 0-30-13.457-30-30s13.457-30 30-30 30 13.457 30 30-13.457 30-30 30zm0 0"/></svg>